<svg xmlns="http://www.w3.org/2000/svg" viewBox="0 0 100 100"><rect width="100" height="100" rx="20" fill="#b3b3b3"/><path d="M49.97 71.74L49.97 71.74Q43.86 71.74 39.76 69.57Q35.67 67.39 33.62 63.49Q31.57 59.59 31.57 54.39L31.57 54.39L31.57 35.86Q31.57 34.04 30.73 32.55Q29.88 31.05 28.26 30.66L28.26 30.66Q26.44 30.14 26.44 29.23L26.44 29.23Q26.44 28.78 26.93 28.52Q27.41 28.26 28.13 28.26L28.13 28.26Q30.21 28.26 32.42 28.42Q34.63 28.58 36.58 28.58L36.58 28.58Q38.40 28.58 40.97 28.45Q43.53 28.32 45.35 28.32L45.35 28.32Q46.13 28.32 46.62 28.55Q47.11 28.78 47.11 29.30L47.11 29.30Q47.11 30.01 46.13 30.34Q45.16 30.66 44.05 31.18L44.05 31.18Q43.08 31.57 42.36 32.78Q41.65 33.98 41.65 36.19L41.65 36.19L41.65 53.22Q41.65 57.64 43.08 60.50Q44.51 63.36 46.88 64.72Q49.25 66.09 52.18 66.09L52.18 66.09Q58.09 66.09 60.98 62.58Q63.88 59.07 63.88 51.85L63.88 51.85Q63.88 50.16 63.91 48.05Q63.94 45.94 63.94 43.70Q63.94 41.45 63.88 39.44L63.88 39.44Q63.81 36.51 63.45 34.89Q63.10 33.26 62.38 32.35Q61.67 31.44 60.43 30.86L60.43 30.86Q59.72 30.47 58.78 30.18Q57.83 29.88 57.83 29.30L57.83 29.30Q57.83 28.78 58.35 28.58Q58.87 28.39 59.78 28.39L59.78 28.39Q62.12 28.39 63.33 28.45Q64.53 28.52 66.02 28.52L66.02 28.52Q67.26 28.52 68.07 28.45Q68.88 28.39 69.76 28.32Q70.64 28.26 71.87 28.26L71.87 28.26Q72.65 28.26 73.11 28.45Q73.56 28.65 73.56 29.23L73.56 29.23Q73.56 30.08 71.81 30.60L71.81 30.60Q69.66 31.18 68.78 32.58Q67.91 33.98 67.78 36.32L67.78 36.32Q67.58 41.26 67.52 45.39Q67.45 49.51 67.45 53.80L67.45 53.80Q67.39 59.07 65.08 63.13Q62.77 67.19 58.81 69.47Q54.84 71.74 49.97 71.74Z" fill="#fff"/></svg>